<svg id="Capa_1" enable-background="new 0 0 512 512" height="512" viewBox="0 0 512 512" width="512" xmlns="http://www.w3.org/2000/svg"><g><g><path d="m463.759 241.017h-415.518l24.009 180.806c1.28 9.638 9.5 16.839 19.222 16.839h329.055c9.723 0 17.943-7.2 19.222-16.839z" fill="#057096"/></g><g><path d="m435.961 241.017-20.709 155.95c-1.28 9.638-9.5 16.839-19.222 16.839h-324.844l1.065 8.018c1.28 9.638 9.5 16.839 19.222 16.839h329.055c9.723 0 17.942-7.2 19.222-16.839l24.009-180.806h-27.798z" fill="#055e7f"/></g><g><path d="m180.469 165.477 12.685-48.178c.512-1.945 2.793-2.79 4.452-1.654 4.202 2.879 9.285 4.565 14.764 4.565 5.778 0 11.118-1.873 15.447-5.044 3.782-2.771 8.954-2.771 12.736 0 4.329 3.171 9.669 5.044 15.447 5.044 5.853 0 11.255-1.923 15.613-5.17 3.838-2.86 9.111-2.86 12.949 0 4.358 3.247 9.76 5.17 15.613 5.17 5.297 0 10.226-1.574 14.346-4.279 1.663-1.092 3.902-.24 4.408 1.684l12.602 47.861h32.083l-16.535-62.799c-4.549-17.274-20.201-29.34-38.064-29.34h-106.031c-17.863 0-33.515 12.065-38.064 29.34l-16.535 62.799h32.084z" fill="#ecbe6b"/></g><g><g><path d="m347.08 102.678c-4.549-17.274-20.201-29.34-38.064-29.34h-18.543c17.863 0 33.515 12.065 38.064 29.34l16.535 62.799h18.543z" fill="#e7a561"/></g></g><g><path d="m494.728 261.174h-477.456c-5.523 0-10-4.477-10-10v-57.478c0-20.272 16.434-36.707 36.707-36.707h424.044c20.272 0 36.707 16.434 36.707 36.707v57.478c-.002 5.523-4.479 10-10.002 10z" fill="#055e7f"/></g><path d="m470.106 157.051c.008.308.023.615.023.925v57.479c0 5.523-4.477 10-10 10h-452.857v25.719c0 5.523 4.477 10 10 10h477.457c5.523 0 10-4.477 10-10v-57.479c0-19.572-15.321-35.562-34.623-36.644z" fill="#004c67"/><g><path d="m280.895 192.746h-47.493c-6.627 0-12-5.373-12-12v-23.757h71.493v23.757c0 6.627-5.373 12-12 12z" fill="#b4d9fc"/></g><g><path d="m382.674 438.641h-253.348v-64.01c0-8.284 6.716-15 15-15h223.348c8.284 0 15 6.716 15 15z" fill="#b4d9fc"/></g><g><path d="m367.674 359.631h-9.865v37.977c0 8.93-7.239 16.168-16.168 16.168h-212.315v24.864h253.348v-64.01c0-8.283-6.716-14.999-15-14.999z" fill="#8ac7fd"/></g><g><path d="m189.616 359.631h14.543v79.01h-14.543z" fill="#62b5fe"/></g><g><path d="m307.841 359.631h14.543v79.01h-14.543z" fill="#62b5fe"/></g><g><path d="m272.897 408.393-14.117-24.45c-.693-1.2-1.973-1.939-3.359-1.939h-28.233c-1.386 0-2.666.739-3.359 1.939l-14.117 24.45c-.693 1.2-.693 2.678 0 3.878l14.117 24.45c.693 1.2 1.973 1.939 3.359 1.939h28.233c1.386 0 2.666-.739 3.359-1.939l14.117-24.45c.693-1.199.693-2.678 0-3.878zm-31.591 9.284c-4.056 0-7.344-3.288-7.344-7.344s3.288-7.344 7.344-7.344 7.344 3.288 7.344 7.344-3.288 7.344-7.344 7.344z" fill="#f6f9f9"/></g><g><path d="m272.897 408.393-14.117-24.45c-.693-1.2-1.973-1.939-3.359-1.939h-14.543c1.386 0 2.666.739 3.359 1.939l14.117 24.45c.693 1.2.693 2.678 0 3.878l-14.117 24.45c-.693 1.2-1.973 1.939-3.359 1.939h14.543c1.386 0 2.666-.739 3.359-1.939l14.117-24.45c.693-1.199.693-2.678 0-3.878z" fill="#dae4ea"/></g><g><path d="m298.742 380.882 7.307-27.271c.359-1.338-.024-2.766-1.004-3.746l-19.964-19.964c-.98-.98-2.408-1.362-3.746-1.004l-27.271 7.307c-1.338.359-2.384 1.404-2.742 2.742l-7.307 27.271c-.359 1.338.024 2.766 1.004 3.746l19.964 19.964c.98.98 2.408 1.362 3.746 1.004l27.271-7.307c1.338-.358 2.383-1.403 2.742-2.742zm-28.973-15.705c-2.906-2.906-2.906-7.619 0-10.525s7.619-2.906 10.525 0 2.906 7.619 0 10.525-7.618 2.907-10.525 0z" fill="#f6f9f9"/></g><g><path d="m298.742 380.882 7.307-27.271c.359-1.338-.024-2.766-1.004-3.746l-10.284-10.284c.98.98 1.362 2.408 1.004 3.746l-7.307 27.271c-.359 1.338-1.404 2.384-2.742 2.742l-27.271 7.307c-1.338.359-2.766-.024-3.746-1.004l10.284 10.284c.98.98 2.408 1.362 3.746 1.004l27.271-7.307c1.338-.358 2.383-1.403 2.742-2.742z" fill="#dae4ea"/></g><g><path d="m168.357 192.746h-89.647c-6.627 0-12-5.373-12-12v-23.757h113.646v23.757c.001 6.627-5.372 12-11.999 12z" fill="#b4d9fc"/></g><g><path d="m191.357 293.51h-135.647c-3.866 0-7-3.134-7-7v-39.675c0-3.866 3.134-7 7-7h135.647c3.866 0 7 3.134 7 7v39.675c0 3.866-3.134 7-7 7z" fill="#057096"/></g><g><path d="m433.29 192.746h-89.646c-6.627 0-12-5.373-12-12v-23.757h113.646v23.757c0 6.627-5.373 12-12 12z" fill="#b4d9fc"/></g><g><path d="m456.29 293.51h-135.647c-3.866 0-7-3.134-7-7v-39.675c0-3.866 3.134-7 7-7h135.647c3.866 0 7 3.134 7 7v39.675c0 3.866-3.134 7-7 7z" fill="#057096"/></g><path d="m191.357 239.835h-15.747v23.928c0 3.866-3.134 7-7 7h-119.9v15.747c0 3.866 3.134 7 7 7h135.647c3.866 0 7-3.134 7-7v-39.675c0-3.866-3.134-7-7-7z" fill="#055e7f"/><path d="m456.29 239.835h-15.747v23.928c0 3.866-3.134 7-7 7h-119.9v15.747c0 3.866 3.134 7 7 7h135.647c3.866 0 7-3.134 7-7v-39.675c0-3.866-3.134-7-7-7z" fill="#055e7f"/><g><path d="m427.536 228.741h-78.14c-2.142 0-3.878 1.736-3.878 3.878v66.687c0 2.142 1.736 3.878 3.878 3.878h8.888c1.671 0 3.197 1.043 3.71 2.633 3.604 11.183 14.091 19.275 26.473 19.275s22.869-8.092 26.473-19.275c.512-1.59 2.039-2.633 3.71-2.633h8.888c2.142 0 3.878-1.736 3.878-3.878v-66.687c-.001-2.142-1.738-3.878-3.88-3.878z" fill="#ecbe6b"/></g><g><path d="m427.536 228.741h-27.271c2.142 0 3.878 1.736 3.878 3.878v66.687c0 2.142-1.736 3.878-3.878 3.878h-8.888c-1.671 0-3.197 1.043-3.71 2.633-2.16 6.704-6.805 12.279-12.837 15.684 4.031 2.275 8.676 3.591 13.635 3.591 12.382 0 22.869-8.092 26.473-19.275.512-1.59 2.039-2.633 3.71-2.633h8.888c2.142 0 3.878-1.736 3.878-3.878v-66.687c.001-2.142-1.736-3.878-3.878-3.878z" fill="#e7a561"/></g><g><g><path d="m364.834 228.741h14.543v28.952h-14.543z" fill="#e4936b"/></g><g><path d="m397.556 228.741h14.543v28.952h-14.543z" fill="#e4936b"/></g></g><g><path d="m162.604 228.741h-78.14c-2.142 0-3.878 1.736-3.878 3.878v66.687c0 2.142 1.736 3.878 3.878 3.878h8.888c1.671 0 3.197 1.043 3.71 2.633 3.604 11.183 14.091 19.275 26.473 19.275s22.869-8.092 26.473-19.275c.512-1.59 2.039-2.633 3.71-2.633h8.888c2.142 0 3.878-1.736 3.878-3.878v-66.687c-.002-2.142-1.738-3.878-3.88-3.878z" fill="#ecbe6b"/></g><g><path d="m162.604 228.741h-27.271c2.142 0 3.878 1.736 3.878 3.878v66.687c0 2.142-1.736 3.878-3.878 3.878h-8.888c-1.671 0-3.197 1.043-3.71 2.633-2.16 6.704-6.805 12.279-12.837 15.684 4.031 2.275 8.676 3.591 13.635 3.591 12.382 0 22.869-8.092 26.473-19.275.512-1.59 2.039-2.633 3.71-2.633h8.888c2.142 0 3.878-1.736 3.878-3.878v-66.687c0-2.142-1.736-3.878-3.878-3.878z" fill="#e7a561"/></g><g><g><path d="m99.9 228.741h14.543v28.952h-14.543z" fill="#e4936b"/></g><g><path d="m132.623 228.741h14.543v28.952h-14.543z" fill="#e4936b"/></g></g><g fill="#8ac7fd"><path d="m275.523 156.989v13.386c0 2.761-2.239 5-5 5h-49.122v5.372c0 6.627 5.373 12 12 12h47.493c6.627 0 12-5.373 12-12v-23.757h-17.371z"/><path d="m162.985 156.989v13.386c0 2.761-2.239 5-5 5h-91.275v5.372c0 6.627 5.373 12 12 12h89.646c6.627 0 12-5.373 12-12v-23.757h-17.371z"/><path d="m427.918 156.989v13.386c0 2.761-2.239 5-5 5h-91.275v5.372c0 6.627 5.373 12 12 12h89.646c6.627 0 12-5.373 12-12v-23.757h-17.371z"/></g><g><path d="m469.14 149.717h-102.156l-12.872-48.89c-5.389-20.466-23.933-34.76-45.096-34.76h-9.931c-4.016 0-7.272 3.256-7.272 7.272s3.255 7.272 7.272 7.272h9.931c14.562 0 27.324 9.836 31.032 23.919l11.897 45.187h-17.044l-8.94-33.953c-.831-3.156-3.146-5.739-6.192-6.908-3.049-1.171-6.503-.798-9.239.997-3.074 2.018-6.655 3.085-10.355 3.085-4.098 0-7.994-1.29-11.268-3.729-6.368-4.746-15.267-4.747-21.639 0-3.274 2.44-7.17 3.729-11.268 3.729-4.045 0-7.9-1.258-11.15-3.64-6.38-4.671-14.951-4.673-21.331.001-3.249 2.38-7.104 3.639-11.149 3.639-3.825 0-7.509-1.139-10.656-3.294-2.729-1.869-6.208-2.297-9.305-1.143-3.096 1.152-5.446 3.749-6.288 6.945l-9.023 34.27h-17.044l11.898-45.187c3.708-14.083 16.469-23.919 31.032-23.919h62.677c4.016 0 7.272-3.256 7.272-7.272s-3.255-7.272-7.272-7.272h-62.677c-21.163 0-39.706 14.294-45.096 34.76l-12.873 48.89h-32.209c-4.016 0-7.272 3.256-7.272 7.272s3.255 7.272 7.272 7.272h60.278v16.851c0 2.406-1.957 4.363-4.363 4.363h-90.376c-2.406 0-4.363-1.957-4.363-4.363v-16.851h5.634c4.016 0 7.272-3.256 7.272-7.272s-3.255-7.272-7.272-7.272h-36.756c-23.633.001-42.86 19.228-42.86 42.862v58.901c0 9.356 7.612 16.967 16.967 16.967h24.471v18.278c0 5.245 2.893 9.821 7.162 12.237l16.442 123.82c1.753 13.199 13.116 23.153 26.431 23.153h329.055c13.315 0 24.678-9.954 26.431-23.153l3.013-22.687c.529-3.981-2.27-7.637-6.251-8.165-3.982-.535-7.636 2.27-8.165 6.251l-3.013 22.687c-.797 6-5.962 10.524-12.014 10.524h-30.582v-57.215c0-12.029-9.786-21.815-21.815-21.815h-54.696c-.067-2.83-1.197-5.585-3.247-7.636l-19.962-19.961c-2.805-2.81-6.932-3.916-10.772-2.889l-27.269 7.307c-3.836 1.027-6.858 4.048-7.886 7.885l-4.098 15.294h-96.331c-12.029 0-21.815 9.786-21.815 21.815v57.215h-30.583c-6.052 0-11.217-4.524-12.014-10.524l-15.947-120.085h9.91c.726 5.452 5.394 9.674 11.041 9.674h6.549c5.33 13.204 18.094 21.908 32.521 21.908 14.429 0 27.193-8.704 32.521-21.908h6.549c5.646 0 10.315-4.223 11.041-9.674h17.926c7.752 0 14.059-6.307 14.059-14.059v-18.278h100.743v18.278c0 7.752 6.307 14.059 14.059 14.059h17.926c.726 5.452 5.394 9.674 11.041 9.674h6.549c5.33 13.204 18.094 21.908 32.521 21.908s27.191-8.704 32.521-21.908h6.549c5.646 0 10.315-4.223 11.041-9.674h9.91l-8.551 64.392c-.529 3.981 2.27 7.637 6.251 8.165.325.043.648.064.967.064 3.59 0 6.713-2.659 7.199-6.315l9.047-68.128c4.269-2.416 7.162-6.992 7.162-12.237v-18.278h24.471c9.356 0 16.967-7.612 16.967-16.967v-58.901c-.002-23.633-19.229-42.86-42.862-42.86zm-189.946 266.192c1.986-3.439 1.987-7.712.001-11.152l-4.551-7.882 23.236-6.226c3.836-1.027 6.858-4.048 7.886-7.883v-.001l2.075-7.746v56.371h-37.585zm13.031-38.801-23.486 6.293-16.498-16.498h42.719zm-52.676-2.376h-12.36c-3.969 0-7.668 2.136-9.656 5.575l-13.374 23.164v-36.568h32.476c-.079 2.863.951 5.68 2.914 7.829zm-35.39 42.461 8.196 14.196h-8.196zm24.989 14.196-12.156-21.057 12.156-21.057h24.316l12.156 21.057-12.156 21.057zm146.254-57.215v57.215h-53.018v-64.487h45.746c4.01.001 7.272 3.262 7.272 7.272zm-117.563-31.452 23.485-6.294 15.931 15.93h-41.998zm-121.241 31.452c0-4.01 3.262-7.272 7.272-7.272h45.746v64.487h-53.018zm202.317-209.914h99.103v16.851c0 2.406-1.957 4.363-4.363 4.363h-90.377c-2.406 0-4.363-1.957-4.363-4.363zm-140.161-39.67c4.257 1.903 8.877 2.892 13.616 2.892 7.157 0 13.985-2.231 19.743-6.45 1.22-.894 2.923-.893 4.142-.001 5.76 4.22 12.587 6.451 19.744 6.451 7.253 0 14.153-2.286 19.958-6.61 1.254-.935 3.005-.935 4.259 0 5.805 4.325 12.706 6.61 19.958 6.61 4.551 0 9.004-.915 13.128-2.676l6.559 24.911h-127.723zm29.919 39.67h56.949v16.851c0 2.406-1.957 4.363-4.363 4.363h-48.223c-2.406 0-4.363-1.957-4.363-4.363zm-155.36 121.979h-17.331v-39.132h17.332v39.132zm85.897 9.674h-5.494c-4.877 0-9.149 3.083-10.632 7.675-2.743 8.513-10.601 14.234-19.551 14.234s-16.808-5.72-19.551-14.234c-1.479-4.59-5.751-7.675-10.631-7.675h-5.494v-59.9h12.043v21.681c0 4.016 3.255 7.272 7.272 7.272 4.016 0 7.272-3.256 7.272-7.272v-21.681h18.179v21.681c0 4.016 3.255 7.272 7.272 7.272s7.272-3.256 7.272-7.272v-21.681h12.044v59.9zm31.875-9.674h-17.332v-39.132h17.332zm147.162 0h-17.332v-39.132h17.332zm85.896 9.674h-5.494c-4.88 0-9.152 3.084-10.631 7.675-2.743 8.513-10.601 14.234-19.551 14.234s-16.808-5.72-19.552-14.238c-1.482-4.588-5.754-7.671-10.631-7.671h-5.494v-59.9h12.044v21.681c0 4.016 3.255 7.272 7.272 7.272s7.272-3.256 7.272-7.272v-21.681h18.179v21.681c0 4.016 3.255 7.272 7.272 7.272 4.016 0 7.272-3.256 7.272-7.272v-21.681h12.044v59.9zm31.875-48.806v39.132h-17.332v-39.132zm41.439 4.371c0 1.336-1.087 2.424-2.424 2.424h-24.471v-7.28c0-7.752-6.307-14.059-14.059-14.059h-17.819c-.03-6.123-5.018-11.094-11.147-11.094h-78.14c-6.129 0-11.117 4.972-11.147 11.094h-17.82c-7.752 0-14.059 6.307-14.059 14.059v7.28h-100.743v-7.28c0-7.752-6.307-14.059-14.059-14.059h-17.819c-.03-6.123-5.018-11.094-11.147-11.094h-78.14c-6.129 0-11.117 4.972-11.147 11.094h-17.819c-7.752 0-14.059 6.307-14.059 14.059v7.28h-24.471c-1.337 0-2.424-1.087-2.424-2.424v-58.901c0-15.614 12.703-28.317 28.317-28.317h16.578v16.851c0 10.425 8.482 18.906 18.906 18.906h90.377c10.425 0 18.906-8.481 18.906-18.906v-16.851h26.502v16.851c0 10.425 8.482 18.906 18.906 18.906h48.223c10.425 0 18.906-8.481 18.906-18.906v-16.851h24.206v16.851c0 10.425 8.482 18.906 18.906 18.906h90.377c10.425 0 18.906-8.481 18.906-18.906v-16.851h16.578c15.614 0 28.317 12.703 28.317 28.317v58.901z"/><circle cx="241.306" cy="410.333" r="7.344"/></g></g></svg>